<svg width="65" height="41" viewBox="0 0 65 41" fill="none" xmlns="http://www.w3.org/2000/svg">
<path d="M25.07 5.18C25.462 5.18 25.794 5.306 26.066 5.558C26.338 5.806 26.474 6.144 26.474 6.572C26.474 7.024 26.322 7.388 26.018 7.664C25.714 7.936 25.33 8.072 24.866 8.072C24.434 8.072 24.06 7.952 23.744 7.712C23.432 7.468 23.26 7.118 23.228 6.662H24.098C24.126 6.862 24.21 7.012 24.35 7.112C24.494 7.212 24.664 7.262 24.86 7.262C25.084 7.262 25.264 7.196 25.4 7.064C25.536 6.932 25.604 6.764 25.604 6.56C25.604 6.356 25.536 6.194 25.4 6.074C25.264 5.95 25.088 5.888 24.872 5.888C24.548 5.888 24.316 6.004 24.176 6.236H23.354L23.876 3.8H26.276V4.616H24.518L24.362 5.372C24.566 5.244 24.802 5.18 25.07 5.18ZM30.3933 6.278V7.076L29.8053 7.082V8H28.9473V7.082H26.8653V6.278L28.5393 3.8H29.8053V6.272L30.3933 6.278ZM27.7833 6.272H28.9473V4.598H28.8933L27.7833 6.272Z" fill="white"/>
<rect y="26" width="10" height="15" rx="2" fill="#A0D7E7"/>
<rect x="33" y="26" width="10" height="15" rx="2" fill="#A0D7E7"/>
<rect x="44" y="23" width="10" height="18" rx="2" fill="#A0D7E7"/>
<rect x="55" y="16" width="10" height="25" rx="2" fill="#A0D7E7"/>
<rect x="11" y="18" width="10" height="23" rx="2" fill="#A0D7E7"/>
<rect x="22" y="12" width="10" height="29" rx="2" fill="#278EFF"/>
</svg>
