<svg width="91" height="50" viewBox="0 0 91 50" fill="none" xmlns="http://www.w3.org/2000/svg">
<path d="M1 49C7.69536 34.2009 22.1718 3.6054 29.6211 37.0753C37.0705 70.5452 61.3789 9.7346 90 37.0753" stroke="#7D7FDE" stroke-width="0.6"/>
<path d="M1 49C7.69536 34.2009 36 -2.5 36 27C36 56.5 59 16.4247 90 40.5" stroke="#C2DFFC" stroke-width="0.6"/>
<rect x="24" width="17" height="12" rx="2" fill="white"/>
<path d="M31.0942 10.98C31.0172 10.8467 31.1134 10.68 31.2674 10.68L33.7649 10.68C33.9188 10.68 34.015 10.8467 33.9381 10.98L32.6893 13.1429C32.6123 13.2762 32.4199 13.2762 32.3429 13.1429L31.0942 10.98Z" fill="white"/>
</svg>
